<svg xmlns="http://www.w3.org/2000/svg" width="5150.667" height="5150.667" preserveAspectRatio="xMidYMid meet" version="1.0" viewBox="0 0 3863 3863"><metadata>Created by potrace 1.14, written by Peter Selinger 2001-2017</metadata><g fill="#000" stroke="none"><path d="M18550 36729 c-3055 -136 -6008 -1066 -8585 -2702 -1517 -963 -2879 -2160 -4041 -3552 -1377 -1649 -2461 -3592 -3139 -5630 -523 -1570 -811 -3133 -885 -4800 -13 -284 -13 -1176 0 -1460 74 -1667 362 -3230 885 -4800 440 -1322 1062 -2629 1818 -3820 963 -1517 2160 -2879 3552 -4041 1649 -1377 3592 -2461 5630 -3139 1570 -523 3133 -811 4800 -885 284 -13 1176 -13 1460 0 1667 74 3230 362 4800 885 1322 440 2629 1062 3820 1818 1517 963 2879 2160 4041 3552 1377 1649 2461 3592 3139 5630 523 1570 811 3133 885 4800 13 284 13 1176 0 1460 -74 1667 -362 3230 -885 4800 -440 1322 -1062 2629 -1818 3820 -963 1517 -2160 2879 -3552 4041 -1649 1377 -3592 2461 -5630 3139 -1570 523 -3133 811 -4800 885 -254 11 -1236 11 -1495 -1z" transform="translate(0.000000,3863.000000) scale(0.100000,-0.100000)"/></g></svg>